<?xml version="1.0" encoding="UTF-8"?>
<!DOCTYPE svg PUBLIC "-//W3C//DTD SVG 1.1//EN" "http://www.w3.org/Graphics/SVG/1.1/DTD/svg11.dtd">
<svg version="1.2" width="210mm" height="297mm" viewBox="0 0 21000 29700" preserveAspectRatio="xMidYMid" fill-rule="evenodd" stroke-width="28.222" stroke-linejoin="round" xmlns="http://www.w3.org/2000/svg" xmlns:ooo="http://xml.openoffice.org/svg/export" xmlns:xlink="http://www.w3.org/1999/xlink" xmlns:presentation="http://sun.com/xmlns/staroffice/presentation" xmlns:smil="http://www.w3.org/2001/SMIL20/" xmlns:anim="urn:oasis:names:tc:opendocument:xmlns:animation:1.0" xml:space="preserve">
 <defs class="ClipPathGroup">
  <clipPath id="presentation_clip_path" clipPathUnits="userSpaceOnUse">
   <rect x="0" y="0" width="21000" height="29700"/>
  </clipPath>
  <clipPath id="presentation_clip_path_shrink" clipPathUnits="userSpaceOnUse">
   <rect x="21" y="29" width="20958" height="29641"/>
  </clipPath>
 </defs>
 <defs class="TextShapeIndex">
  <g ooo:slide="id1" ooo:id-list="id3 id4 id5 id6 id7 id8 id9 id10 id11 id12 id13 id14 id15 id16 id17 id18 id19 id20 id21"/>
 </defs>
 <defs class="EmbeddedBulletChars">
  <g id="bullet-char-template-57356" transform="scale(0.00048828125,-0.00048828125)">
   <path d="M 580,1141 L 1163,571 580,0 -4,571 580,1141 Z"/>
  </g>
  <g id="bullet-char-template-57354" transform="scale(0.00048828125,-0.00048828125)">
   <path d="M 8,1128 L 1137,1128 1137,0 8,0 8,1128 Z"/>
  </g>
  <g id="bullet-char-template-10146" transform="scale(0.00048828125,-0.00048828125)">
   <path d="M 174,0 L 602,739 174,1481 1456,739 174,0 Z M 1358,739 L 309,1346 659,739 1358,739 Z"/>
  </g>
  <g id="bullet-char-template-10132" transform="scale(0.00048828125,-0.00048828125)">
   <path d="M 2015,739 L 1276,0 717,0 1260,543 174,543 174,936 1260,936 717,1481 1274,1481 2015,739 Z"/>
  </g>
  <g id="bullet-char-template-10007" transform="scale(0.00048828125,-0.00048828125)">
   <path d="M 0,-2 C -7,14 -16,27 -25,37 L 356,567 C 262,823 215,952 215,954 215,979 228,992 255,992 264,992 276,990 289,987 310,991 331,999 354,1012 L 381,999 492,748 772,1049 836,1024 860,1049 C 881,1039 901,1025 922,1006 886,937 835,863 770,784 769,783 710,716 594,584 L 774,223 C 774,196 753,168 711,139 L 727,119 C 717,90 699,76 672,76 641,76 570,178 457,381 L 164,-76 C 142,-110 111,-127 72,-127 30,-127 9,-110 8,-76 1,-67 -2,-52 -2,-32 -2,-23 -1,-13 0,-2 Z"/>
  </g>
  <g id="bullet-char-template-10004" transform="scale(0.00048828125,-0.00048828125)">
   <path d="M 285,-33 C 182,-33 111,30 74,156 52,228 41,333 41,471 41,549 55,616 82,672 116,743 169,778 240,778 293,778 328,747 346,684 L 369,508 C 377,444 397,411 428,410 L 1163,1116 C 1174,1127 1196,1133 1229,1133 1271,1133 1292,1118 1292,1087 L 1292,965 C 1292,929 1282,901 1262,881 L 442,47 C 390,-6 338,-33 285,-33 Z"/>
  </g>
  <g id="bullet-char-template-9679" transform="scale(0.00048828125,-0.00048828125)">
   <path d="M 813,0 C 632,0 489,54 383,161 276,268 223,411 223,592 223,773 276,916 383,1023 489,1130 632,1184 813,1184 992,1184 1136,1130 1245,1023 1353,916 1407,772 1407,592 1407,412 1353,268 1245,161 1136,54 992,0 813,0 Z"/>
  </g>
  <g id="bullet-char-template-8226" transform="scale(0.00048828125,-0.00048828125)">
   <path d="M 346,457 C 273,457 209,483 155,535 101,586 74,649 74,723 74,796 101,859 155,911 209,963 273,989 346,989 419,989 480,963 531,910 582,859 608,796 608,723 608,648 583,586 532,535 482,483 420,457 346,457 Z"/>
  </g>
  <g id="bullet-char-template-8211" transform="scale(0.00048828125,-0.00048828125)">
   <path d="M -4,459 L 1135,459 1135,606 -4,606 -4,459 Z"/>
  </g>
  <g id="bullet-char-template-61548" transform="scale(0.00048828125,-0.00048828125)">
   <path d="M 173,740 C 173,903 231,1043 346,1159 462,1274 601,1332 765,1332 928,1332 1067,1274 1183,1159 1299,1043 1357,903 1357,740 1357,577 1299,437 1183,322 1067,206 928,148 765,148 601,148 462,206 346,322 231,437 173,577 173,740 Z"/>
  </g>
 </defs>
 <defs class="TextEmbeddedBitmaps"/>
 <g>
  <g id="id2" class="Master_Slide">
   <g id="bg-id2" class="Background"/>
   <g id="bo-id2" class="BackgroundObjects"/>
  </g>
 </g>
 <g class="SlideGroup">
  <g>
   <g id="container-id1">
    <g id="id1" class="Slide" clip-path="url(#presentation_clip_path)">
     <g class="Page">
      <g class="com.sun.star.drawing.CustomShape">
       <g id="id3">
        <rect class="BoundingBox" stroke="none" fill="none" x="15599" y="4999" width="2303" height="2303"/>
        <path fill="rgb(119,188,101)" stroke="none" d="M 16750,5000 C 16962,5000 17142,5048 17325,5154 17509,5260 17640,5391 17746,5575 17852,5758 17901,5938 17901,6150 17901,6362 17852,6542 17746,6725 17640,6909 17509,7040 17325,7146 17142,7252 16962,7301 16750,7301 16538,7301 16358,7252 16175,7146 15991,7040 15860,6909 15754,6725 15648,6542 15600,6362 15600,6150 15600,5938 15648,5758 15754,5575 15860,5391 15991,5260 16175,5154 16358,5048 16538,5000 16750,5000 L 16750,5000 Z"/>
        <path fill="none" stroke="rgb(52,101,164)" d="M 16750,5000 C 16962,5000 17142,5048 17325,5154 17509,5260 17640,5391 17746,5575 17852,5758 17901,5938 17901,6150 17901,6362 17852,6542 17746,6725 17640,6909 17509,7040 17325,7146 17142,7252 16962,7301 16750,7301 16538,7301 16358,7252 16175,7146 15991,7040 15860,6909 15754,6725 15648,6542 15600,6362 15600,6150 15600,5938 15648,5758 15754,5575 15860,5391 15991,5260 16175,5154 16358,5048 16538,5000 16750,5000 Z"/>
       </g>
      </g>
      <g class="com.sun.star.drawing.CustomShape">
       <g id="id4">
        <rect class="BoundingBox" stroke="none" fill="none" x="2899" y="4999" width="2303" height="2303"/>
        <path fill="rgb(119,188,101)" stroke="none" d="M 4050,5000 C 4262,5000 4442,5048 4625,5154 4809,5260 4940,5391 5046,5575 5152,5758 5201,5938 5201,6150 5201,6362 5152,6542 5046,6725 4940,6909 4809,7040 4625,7146 4442,7252 4262,7301 4050,7301 3838,7301 3658,7252 3475,7146 3291,7040 3160,6909 3054,6725 2948,6542 2900,6362 2900,6150 2899,5938 2948,5758 3054,5575 3160,5391 3291,5260 3475,5154 3658,5048 3838,5000 4050,5000 L 4050,5000 Z"/>
        <path fill="none" stroke="rgb(52,101,164)" d="M 4050,5000 C 4262,5000 4442,5048 4625,5154 4809,5260 4940,5391 5046,5575 5152,5758 5201,5938 5201,6150 5201,6362 5152,6542 5046,6725 4940,6909 4809,7040 4625,7146 4442,7252 4262,7301 4050,7301 3838,7301 3658,7252 3475,7146 3291,7040 3160,6909 3054,6725 2948,6542 2900,6362 2900,6150 2899,5938 2948,5758 3054,5575 3160,5391 3291,5260 3475,5154 3658,5048 3838,5000 4050,5000 L 4050,5000 Z"/>
       </g>
      </g>
      <g class="com.sun.star.drawing.CustomShape">
       <g id="id5">
        <rect class="BoundingBox" stroke="none" fill="none" x="5699" y="2899" width="2303" height="2303"/>
        <path fill="rgb(119,188,101)" stroke="none" d="M 6850,2900 C 7062,2900 7242,2948 7425,3054 7609,3160 7740,3291 7846,3475 7952,3658 8001,3838 8001,4050 8001,4262 7952,4442 7846,4625 7740,4809 7609,4940 7425,5046 7242,5152 7062,5201 6850,5201 6638,5201 6458,5152 6275,5046 6091,4940 5960,4809 5854,4625 5748,4442 5700,4262 5700,4050 5700,3838 5748,3658 5854,3475 5960,3291 6091,3160 6275,3054 6458,2948 6638,2900 6850,2900 L 6850,2900 Z"/>
        <path fill="none" stroke="rgb(52,101,164)" d="M 6850,2900 C 7062,2900 7242,2948 7425,3054 7609,3160 7740,3291 7846,3475 7952,3658 8001,3838 8001,4050 8001,4262 7952,4442 7846,4625 7740,4809 7609,4940 7425,5046 7242,5152 7062,5201 6850,5201 6638,5201 6458,5152 6275,5046 6091,4940 5960,4809 5854,4625 5748,4442 5700,4262 5700,4050 5700,3838 5748,3658 5854,3475 5960,3291 6091,3160 6275,3054 6458,2948 6638,2900 6850,2900 Z"/>
       </g>
      </g>
      <g class="com.sun.star.drawing.CustomShape">
       <g id="id6">
        <rect class="BoundingBox" stroke="none" fill="none" x="12799" y="2899" width="2303" height="2303"/>
        <path fill="rgb(119,188,101)" stroke="none" d="M 13950,2900 C 14162,2900 14342,2948 14525,3054 14709,3160 14840,3291 14946,3475 15052,3658 15101,3838 15101,4050 15101,4262 15052,4442 14946,4625 14840,4809 14709,4940 14525,5046 14342,5152 14162,5201 13950,5201 13738,5201 13558,5152 13375,5046 13191,4940 13060,4809 12954,4625 12848,4442 12800,4262 12800,4050 12800,3838 12848,3658 12954,3475 13060,3291 13191,3160 13375,3054 13558,2948 13738,2900 13950,2900 L 13950,2900 Z"/>
        <path fill="none" stroke="rgb(52,101,164)" d="M 13950,2900 C 14162,2900 14342,2948 14525,3054 14709,3160 14840,3291 14946,3475 15052,3658 15101,3838 15101,4050 15101,4262 15052,4442 14946,4625 14840,4809 14709,4940 14525,5046 14342,5152 14162,5201 13950,5201 13738,5201 13558,5152 13375,5046 13191,4940 13060,4809 12954,4625 12848,4442 12800,4262 12800,4050 12800,3838 12848,3658 12954,3475 13060,3291 13191,3160 13375,3054 13558,2948 13738,2900 13950,2900 L 13950,2900 Z"/>
       </g>
      </g>
      <g class="com.sun.star.drawing.CustomShape">
       <g id="id7">
        <rect class="BoundingBox" stroke="none" fill="none" x="9199" y="2099" width="2303" height="2303"/>
        <path fill="rgb(119,188,101)" stroke="none" d="M 10350,2100 C 10562,2100 10742,2148 10925,2254 11109,2360 11240,2491 11346,2675 11452,2858 11501,3038 11501,3250 11501,3462 11452,3642 11346,3825 11240,4009 11109,4140 10925,4246 10742,4352 10562,4401 10350,4401 10138,4401 9958,4352 9775,4246 9591,4140 9460,4009 9354,3825 9248,3642 9200,3462 9200,3250 9200,3038 9248,2858 9354,2675 9460,2491 9591,2360 9775,2254 9958,2148 10138,2100 10350,2100 L 10350,2100 Z"/>
        <path fill="none" stroke="rgb(52,101,164)" d="M 10350,2100 C 10562,2100 10742,2148 10925,2254 11109,2360 11240,2491 11346,2675 11452,2858 11501,3038 11501,3250 11501,3462 11452,3642 11346,3825 11240,4009 11109,4140 10925,4246 10742,4352 10562,4401 10350,4401 10138,4401 9958,4352 9775,4246 9591,4140 9460,4009 9354,3825 9248,3642 9200,3462 9200,3250 9200,3038 9248,2858 9354,2675 9460,2491 9591,2360 9775,2254 9958,2148 10138,2100 10350,2100 Z"/>
       </g>
      </g>
      <g class="com.sun.star.drawing.CustomShape">
       <g id="id8">
        <rect class="BoundingBox" stroke="none" fill="none" x="9299" y="7799" width="2303" height="2303"/>
        <path fill="rgb(114,159,207)" stroke="none" d="M 10450,7800 C 10662,7800 10842,7848 11025,7954 11209,8060 11340,8191 11446,8375 11552,8558 11601,8738 11601,8950 11601,9162 11552,9342 11446,9525 11340,9709 11209,9840 11025,9946 10842,10052 10662,10101 10450,10101 10238,10101 10058,10052 9875,9946 9691,9840 9560,9709 9454,9525 9348,9342 9300,9162 9300,8950 9300,8738 9348,8558 9454,8375 9560,8191 9691,8060 9875,7954 10058,7848 10238,7800 10450,7800 L 10450,7800 Z"/>
        <path fill="none" stroke="rgb(52,101,164)" d="M 10450,7800 C 10662,7800 10842,7848 11025,7954 11209,8060 11340,8191 11446,8375 11552,8558 11601,8738 11601,8950 11601,9162 11552,9342 11446,9525 11340,9709 11209,9840 11025,9946 10842,10052 10662,10101 10450,10101 10238,10101 10058,10052 9875,9946 9691,9840 9560,9709 9454,9525 9348,9342 9300,9162 9300,8950 9300,8738 9348,8558 9454,8375 9560,8191 9691,8060 9875,7954 10058,7848 10238,7800 10450,7800 L 10450,7800 Z"/>
       </g>
      </g>
      <g class="com.sun.star.drawing.CustomShape">
       <g id="id9">
        <rect class="BoundingBox" stroke="none" fill="none" x="9399" y="12399" width="2303" height="2303"/>
        <path fill="rgb(167,7,75)" stroke="none" d="M 10550,12400 C 10762,12400 10942,12448 11125,12554 11309,12660 11440,12791 11546,12975 11652,13158 11701,13338 11701,13550 11701,13762 11652,13942 11546,14125 11440,14309 11309,14440 11125,14546 10942,14652 10762,14701 10550,14701 10338,14701 10158,14652 9975,14546 9791,14440 9660,14309 9554,14125 9448,13942 9400,13762 9400,13550 9400,13338 9448,13158 9554,12975 9660,12791 9791,12660 9975,12554 10158,12448 10338,12400 10550,12400 L 10550,12400 Z"/>
        <path fill="none" stroke="rgb(52,101,164)" d="M 10550,12400 C 10762,12400 10942,12448 11125,12554 11309,12660 11440,12791 11546,12975 11652,13158 11701,13338 11701,13550 11701,13762 11652,13942 11546,14125 11440,14309 11309,14440 11125,14546 10942,14652 10762,14701 10550,14701 10338,14701 10158,14652 9975,14546 9791,14440 9660,14309 9554,14125 9448,13942 9400,13762 9400,13550 9400,13338 9448,13158 9554,12975 9660,12791 9791,12660 9975,12554 10158,12448 10338,12400 10550,12400 L 10550,12400 Z"/>
       </g>
      </g>
      <g class="com.sun.star.drawing.CustomShape">
       <g id="id10">
        <rect class="BoundingBox" stroke="none" fill="none" x="9399" y="16799" width="2303" height="2303"/>
        <path fill="rgb(184,92,0)" stroke="none" d="M 10550,16800 C 10762,16800 10942,16848 11125,16954 11309,17060 11440,17191 11546,17375 11652,17558 11701,17738 11701,17950 11701,18162 11652,18342 11546,18525 11440,18709 11309,18840 11125,18946 10942,19052 10762,19101 10550,19101 10338,19101 10158,19052 9975,18946 9791,18840 9660,18709 9554,18525 9448,18342 9400,18162 9400,17950 9400,17738 9448,17558 9554,17375 9660,17191 9791,17060 9975,16954 10158,16848 10338,16800 10550,16800 L 10550,16800 Z"/>
        <path fill="none" stroke="rgb(52,101,164)" d="M 10550,16800 C 10762,16800 10942,16848 11125,16954 11309,17060 11440,17191 11546,17375 11652,17558 11701,17738 11701,17950 11701,18162 11652,18342 11546,18525 11440,18709 11309,18840 11125,18946 10942,19052 10762,19101 10550,19101 10338,19101 10158,19052 9975,18946 9791,18840 9660,18709 9554,18525 9448,18342 9400,18162 9400,17950 9400,17738 9448,17558 9554,17375 9660,17191 9791,17060 9975,16954 10158,16848 10338,16800 10550,16800 L 10550,16800 Z"/>
       </g>
      </g>
      <g class="com.sun.star.drawing.CustomShape">
       <g id="id11">
        <rect class="BoundingBox" stroke="none" fill="none" x="12999" y="16899" width="2303" height="2303"/>
        <path fill="rgb(184,92,0)" stroke="none" d="M 14150,16900 C 14362,16900 14542,16948 14725,17054 14909,17160 15040,17291 15146,17475 15252,17658 15301,17838 15301,18050 15301,18262 15252,18442 15146,18625 15040,18809 14909,18940 14725,19046 14542,19152 14362,19201 14150,19201 13938,19201 13758,19152 13575,19046 13391,18940 13260,18809 13154,18625 13048,18442 13000,18262 13000,18050 13000,17838 13048,17658 13154,17475 13260,17291 13391,17160 13575,17054 13758,16948 13938,16900 14150,16900 L 14150,16900 Z"/>
        <path fill="none" stroke="rgb(52,101,164)" d="M 14150,16900 C 14362,16900 14542,16948 14725,17054 14909,17160 15040,17291 15146,17475 15252,17658 15301,17838 15301,18050 15301,18262 15252,18442 15146,18625 15040,18809 14909,18940 14725,19046 14542,19152 14362,19201 14150,19201 13938,19201 13758,19152 13575,19046 13391,18940 13260,18809 13154,18625 13048,18442 13000,18262 13000,18050 13000,17838 13048,17658 13154,17475 13260,17291 13391,17160 13575,17054 13758,16948 13938,16900 14150,16900 Z"/>
       </g>
      </g>
      <g class="com.sun.star.drawing.CustomShape">
       <g id="id12">
        <rect class="BoundingBox" stroke="none" fill="none" x="5599" y="16899" width="2303" height="2303"/>
        <path fill="rgb(184,92,0)" stroke="none" d="M 6750,16900 C 6962,16900 7142,16948 7325,17054 7509,17160 7640,17291 7746,17475 7852,17658 7901,17838 7901,18050 7901,18262 7852,18442 7746,18625 7640,18809 7509,18940 7325,19046 7142,19152 6962,19201 6750,19201 6538,19201 6358,19152 6175,19046 5991,18940 5860,18809 5754,18625 5648,18442 5600,18262 5600,18050 5600,17838 5648,17658 5754,17475 5860,17291 5991,17160 6175,17054 6358,16948 6538,16900 6750,16900 L 6750,16900 Z"/>
        <path fill="none" stroke="rgb(52,101,164)" d="M 6750,16900 C 6962,16900 7142,16948 7325,17054 7509,17160 7640,17291 7746,17475 7852,17658 7901,17838 7901,18050 7901,18262 7852,18442 7746,18625 7640,18809 7509,18940 7325,19046 7142,19152 6962,19201 6750,19201 6538,19201 6358,19152 6175,19046 5991,18940 5860,18809 5754,18625 5648,18442 5600,18262 5600,18050 5600,17838 5648,17658 5754,17475 5860,17291 5991,17160 6175,17054 6358,16948 6538,16900 6750,16900 L 6750,16900 Z"/>
       </g>
      </g>
      <g class="com.sun.star.drawing.LineShape">
       <g id="id13">
        <rect class="BoundingBox" stroke="none" fill="none" x="4999" y="6599" width="4502" height="2002"/>
        <path fill="none" stroke="rgb(52,101,164)" d="M 5000,6600 L 9107,8425"/>
        <path fill="rgb(52,101,164)" stroke="none" d="M 9500,8600 L 9150,8280 9028,8554 9500,8600 Z"/>
       </g>
      </g>
      <g class="com.sun.star.drawing.LineShape">
       <g id="id14">
        <rect class="BoundingBox" stroke="none" fill="none" x="7599" y="4899" width="2302" height="3102"/>
        <path fill="none" stroke="rgb(52,101,164)" d="M 7600,4900 L 9644,7655"/>
        <path fill="rgb(52,101,164)" stroke="none" d="M 9900,8000 L 9752,7549 9511,7728 9900,8000 Z"/>
       </g>
      </g>
      <g class="com.sun.star.drawing.LineShape">
       <g id="id15">
        <rect class="BoundingBox" stroke="none" fill="none" x="10236" y="4399" width="302" height="3402"/>
        <path fill="none" stroke="rgb(52,101,164)" d="M 10300,4400 L 10387,7370"/>
        <path fill="rgb(52,101,164)" stroke="none" d="M 10400,7800 L 10537,7346 10237,7355 10400,7800 Z"/>
       </g>
      </g>
      <g class="com.sun.star.drawing.LineShape">
       <g id="id16">
        <rect class="BoundingBox" stroke="none" fill="none" x="11100" y="4999" width="2302" height="3002"/>
        <path fill="none" stroke="rgb(52,101,164)" d="M 13400,5000 L 11362,7659"/>
        <path fill="rgb(52,101,164)" stroke="none" d="M 11100,8000 L 11493,7734 11255,7552 11100,8000 Z"/>
       </g>
      </g>
      <g class="com.sun.star.drawing.LineShape">
       <g id="id17">
        <rect class="BoundingBox" stroke="none" fill="none" x="11500" y="6699" width="4102" height="1902"/>
        <path fill="none" stroke="rgb(52,101,164)" d="M 15600,6700 L 11890,8419"/>
        <path fill="rgb(52,101,164)" stroke="none" d="M 11500,8600 L 11971,8547 11845,8275 11500,8600 Z"/>
       </g>
      </g>
      <g class="com.sun.star.drawing.LineShape">
       <g id="id18">
        <rect class="BoundingBox" stroke="none" fill="none" x="10350" y="10099" width="301" height="2302"/>
        <path fill="none" stroke="rgb(52,101,164)" d="M 10500,10100 L 10500,11970"/>
        <path fill="rgb(52,101,164)" stroke="none" d="M 10500,12400 L 10650,11950 10350,11950 10500,12400 Z"/>
       </g>
      </g>
      <g class="com.sun.star.drawing.LineShape">
       <g id="id19">
        <rect class="BoundingBox" stroke="none" fill="none" x="7400" y="14399" width="2302" height="2602"/>
        <path fill="none" stroke="rgb(52,101,164)" d="M 9700,14400 L 7685,16678"/>
        <path fill="rgb(52,101,164)" stroke="none" d="M 7400,17000 L 7811,16762 7586,16564 7400,17000 Z"/>
       </g>
      </g>
      <g class="com.sun.star.drawing.LineShape">
       <g id="id20">
        <rect class="BoundingBox" stroke="none" fill="none" x="10350" y="14799" width="301" height="2002"/>
        <path fill="none" stroke="rgb(52,101,164)" d="M 10500,14800 L 10500,16370"/>
        <path fill="rgb(52,101,164)" stroke="none" d="M 10500,16800 L 10650,16350 10350,16350 10500,16800 Z"/>
       </g>
      </g>
      <g class="com.sun.star.drawing.LineShape">
       <g id="id21">
        <rect class="BoundingBox" stroke="none" fill="none" x="11399" y="14399" width="2302" height="2702"/>
        <path fill="none" stroke="rgb(52,101,164)" d="M 11400,14400 L 13421,16773"/>
        <path fill="rgb(52,101,164)" stroke="none" d="M 13700,17100 L 13522,16660 13294,16855 13700,17100 Z"/>
       </g>
      </g>
     </g>
    </g>
   </g>
  </g>
 </g>
</svg>